<?xml version="1.0" encoding="UTF-8"?>
<svg width="154px" height="70px" viewBox="0 0 154 70" version="1.1" xmlns="http://www.w3.org/2000/svg" xmlns:xlink="http://www.w3.org/1999/xlink">
    <title>Sertika-ISO-14001-N</title>
    <g id="Page-1" stroke="none" stroke-width="1" fill="none" fill-rule="evenodd">
        <g id="Artboard" transform="translate(-196.000000, -943.000000)">
            <g id="Sertika-ISO-14001-N" transform="translate(196.000000, 943.000000)">
                <g id="Group-11">
                    <path d="M0.000197460116,53.2165044 L0.000197460116,63.4339441 C0.000197460116,67.0452748 2.9620992,70 6.58220132,70 L147.417996,70 C151.038098,70 154,67.0452748 154,63.4339441 L154,53.2165044 L0.000197460116,53.2165044 Z" id="Fill-1" fill="#FFFFFE"></path>
                    <path d="M153.999803,6.56605593 C153.999803,2.95472517 151.037901,0 147.417799,0 L6.58200386,0 C2.96190174,0 0,2.95472517 0,6.56605593 L0,51.4365123 L153.999803,51.4365123 L153.999803,6.56605593 Z" id="Fill-5" fill="#929497"></path>
                    <path d="M140.262436,20.7600304 L136.543604,28.2394247 L143.981269,28.2394247 L140.262436,20.7600304 Z M149.184343,33.9722481 L146.829302,33.9722481 L145.020567,30.3070757 L135.463497,30.3070757 L133.656079,33.9722481 L132.279124,33.9722481 L131.381997,33.9722481 L128.757094,33.9722481 L128.679426,33.9131536 L119.660106,27.0772328 L117.631533,27.0772328 L117.631533,33.9722481 L115.589137,33.9722481 L115.589137,18.7337455 L117.631533,18.7337455 L117.631533,25.0089251 L119.604817,25.0089251 L128.518825,18.7337455 L132.082322,18.7337455 L121.70316,26.0286336 L131.627506,33.4824203 L138.986186,18.7652626 L141.578837,18.7652626 L149.184343,33.9722481 Z M110.91723,33.9722481 L112.960284,33.9722481 L112.960284,18.7652626 L110.91723,18.7652626 L110.91723,33.9722481 Z M93.2024253,20.8335702 L100.052975,20.8335702 L100.052975,33.9722481 L102.094712,33.9722481 L102.094712,20.8335702 L108.976198,20.8335702 L108.976198,18.7652626 L93.2024253,18.7652626 L93.2024253,20.8335702 Z M89.5217687,21.44487 C89.056421,21.0397443 88.4074354,20.8335702 87.5899506,20.8335702 L78.6397417,20.8335702 L78.6397417,25.878271 L87.4892459,25.878271 C88.383082,25.878271 89.0524718,25.6720968 89.4822767,25.2650013 C89.9614466,24.8080038 90.2043225,24.0378055 90.2043225,22.9787007 C90.2043225,22.3470461 89.9805344,21.8447428 89.5217687,21.44487 L89.5217687,21.44487 Z M90.5939771,26.7042808 C90.9270265,26.9025757 91.2113691,27.2072407 91.4423974,27.6156494 C91.8320521,28.2919531 92.028854,29.1796839 92.028854,30.2558604 L92.028854,33.9722481 L89.9871164,33.9722481 L89.9871164,30.0903958 C89.9871164,29.282771 89.8357303,28.7167769 89.5388819,28.4068591 C89.2440081,28.1021941 88.7464086,27.9465786 88.061222,27.9465786 L78.6397417,27.9465786 L78.6397417,33.9722481 L76.5980041,33.9722481 L76.5980041,18.7652626 L87.0423278,18.7652626 C88.8174943,18.7652626 90.1621977,19.1887732 91.040237,20.0246321 C91.8412669,20.7803851 92.2473765,21.864441 92.2473765,23.2459391 C92.2473765,24.2840326 92.0196392,25.1336802 91.5694301,25.7712442 C91.352224,26.0870715 91.0244402,26.4002724 90.5939771,26.7042808 L90.5939771,26.7042808 Z M61.5074439,33.9722481 L74.5891765,33.9722481 L74.5891765,31.9045971 L63.5498397,31.9045971 L63.5498397,27.1396103 L74.3035176,27.1396103 L74.3035176,25.0699895 L63.5498397,25.0699895 L63.5498397,20.8335702 L74.5891765,20.8335702 L74.5891765,18.7652626 L61.5074439,18.7652626 L61.5074439,33.9722481 Z M58.4849877,26.1061131 C57.5911516,25.4514773 56.2286768,25.1330236 54.3185792,25.1330236 L48.0182851,25.1330236 C46.2773451,25.1330236 45.5316041,24.8749776 45.2130351,24.6576412 C44.8655053,24.4212631 44.6884494,23.9288089 44.6884494,23.1934107 C44.6884494,22.3253781 44.8569487,21.7239274 45.1899981,21.4035038 C45.5789945,21.025299 46.3734424,20.8335702 47.5503047,20.8335702 L54.3363507,20.8335702 C55.5895642,20.8335702 56.4926151,21.0509066 57.0191754,21.4809833 C57.4680681,21.8447428 57.6852742,22.4008877 57.6852742,23.1815918 L57.6852742,23.4704982 L59.7270118,23.4704982 L59.7270118,23.1815918 C59.7270118,20.2518176 58.0170072,18.7652626 54.6424138,18.7652626 L47.5292423,18.7652626 C45.8646535,18.7652626 44.6239458,19.1165466 43.8413455,19.8099221 C43.048214,20.5118334 42.6467118,21.6503875 42.6467118,23.1947239 C42.6467118,24.5834447 42.9863432,25.5933041 43.6577076,26.1980379 C44.4093724,26.8730284 45.7027362,27.2013312 47.6102009,27.2013312 L54.7056011,27.2013312 C55.930512,27.2013312 56.7684011,27.3766449 57.1955731,27.7233327 C57.6029992,28.0555751 57.8096741,28.6570258 57.8096741,29.5112697 C57.8096741,30.3609173 57.5799622,30.9544888 57.1067161,31.3267842 C56.6209642,31.7102418 55.8469205,31.9045971 54.8069639,31.9045971 L48.1413686,31.9045971 C46.8907879,31.9045971 45.9890534,31.6806946 45.4611766,31.2381424 C45.025448,30.8730697 44.8128493,30.3077323 44.8128493,29.5086433 L44.8128493,29.2171104 L42.7717699,29.2354953 L42.7717699,29.522432 C42.7717699,30.9912587 43.2213207,32.1258732 44.1125241,32.8941017 C44.9477803,33.6091452 46.1384648,33.9722481 47.6543003,33.9722481 L54.9293892,33.9722481 C56.646634,33.9722481 57.9064295,33.6367226 58.6752076,32.9755208 C59.4551751,32.3025001 59.8514117,31.1508139 59.8514117,29.5532925 L59.8514117,29.2578199 C59.8514117,27.8323292 59.392646,26.7719112 58.4849877,26.1061131 L58.4849877,26.1061131 Z M35.2255024,16.9313631 C34.9273377,16.6017471 34.6160089,16.2898595 34.2934907,15.99767 L17.4633068,31.0405041 C14.7864059,27.0752629 15.371546,21.6503875 19.0337729,18.3588237 C21.8107204,15.8624092 25.6289408,15.2497962 28.9146771,16.4389089 L31.5027211,14.0744722 C26.8452951,11.6929637 21.0037667,12.2753729 16.8834323,15.9786284 C11.554642,20.7685662 11.1268117,28.9590644 15.9270671,34.2762565 C16.3265948,34.7188087 16.7754874,35.1442891 17.2651885,35.5474449 L33.9617577,20.5939091 C36.3207479,24.5131879 35.6506999,29.6734513 32.1181384,32.8487959 C29.8071969,34.9269526 26.7755259,35.697151 23.9294674,35.2138893 L21.0353603,37.7759643 C24.9490198,39.3203007 29.8644603,39.1889795 34.2704537,35.2303044 C39.599244,30.4403666 40.0270743,22.2485552 35.2255024,16.9313631 L35.2255024,16.9313631 Z M41.9128184,36.2217789 C38.4460769,41.6000353 32.395899,45.1667169 25.5104647,45.1667169 C14.7429646,45.1667169 6.01391111,36.4588135 6.01391111,25.7187158 C6.01391111,14.9766483 14.7429646,6.27005813 25.5104647,6.27005813 C32.3781276,6.27005813 38.4138251,9.81638494 41.8858322,15.1716602 L37.8773918,15.1716602 C34.892453,11.6909939 30.461448,9.4834859 25.5104647,9.4834859 C16.5220803,9.4834859 9.235802,16.7521098 9.235802,25.7187158 C9.235802,34.683352 16.5220803,41.9519759 25.5104647,41.9519759 C30.4805359,41.9519759 34.9286541,39.7260829 37.9135928,36.2217789 L41.9128184,36.2217789 Z" id="Fill-9" fill="#FFFFFE"></path>
                </g>
                <polygon id="Fill-12" fill="#929497" points="45 65 46 65 46 58 45 58"></polygon>
                <g id="Group-42" transform="translate(48.000000, 58.000000)">
                    <path d="M0,2.02962597 C0,1.33650167 0.166783066,0.836563387 0.499695146,0.529811134 C0.833261277,0.223058882 1.36369683,0.0699913591 2.09230991,0.0699913591 L5.33182569,0.0699913591 C6.78774374,0.0699913591 7.51635682,0.724848784 7.51635682,2.03456363 L6.84987861,2.03456363 C6.84987861,1.61856561 6.73214939,1.31057894 6.49799905,1.10936921 C6.23245424,0.882236761 5.79751017,0.768053327 5.19251278,0.768053327 L2.10146663,0.768053327 C1.52720964,0.768053327 1.1387032,0.871744229 0.93529327,1.07850883 C0.756083231,1.25873349 0.666478211,1.57597827 0.666478211,2.02962597 C0.666478211,2.4301938 0.765239948,2.7005308 0.962763422,2.84063696 C1.19756782,3.00790026 1.64755507,3.09122331 2.31403328,3.09122331 L5.18335606,3.09122331 C6.01661734,3.09122331 6.62292283,3.23564992 7.0029266,3.52512036 C7.38227632,3.81397358 7.57195118,4.27441057 7.57195118,4.9058141 L7.57195118,5.04530305 C7.57195118,5.76311566 7.40843837,6.26860881 7.08141275,6.56116529 C6.75438713,6.85372176 6.21414081,7 5.46132783,7 L2.14725021,7 C1.48731251,7 0.9778066,6.84014319 0.620040573,6.52104678 C0.243961112,6.18219973 0.0555943552,5.68349586 0.0555943552,5.0255524 L0.722072566,5.0255524 C0.722072566,5.44463646 0.835877482,5.75324034 1.06414136,5.95259844 C1.32968617,6.18528577 1.76463024,6.30193803 2.36962763,6.30193803 L5.40573348,6.30193803 C5.91196914,6.30193803 6.2880486,6.20071596 6.53527997,5.99765461 C6.78185728,5.79521047 6.90547297,5.4711764 6.90547297,5.0255524 C6.90547297,4.57375633 6.79559236,4.25465992 6.5764852,4.06826318 C6.35737803,3.88248364 5.95186626,3.78928527 5.35929584,3.78928527 L2.12893678,3.78928527 C1.30221601,3.78928527 0.731229284,3.64238983 0.416630638,3.34921615 C0.138658862,3.08937168 0,2.64930256 0,2.02962597" id="Fill-14" fill="#929497"></path>
                    <path d="M0,2.02962597 C0,1.33650167 0.166783066,0.836563387 0.499695146,0.529811134 C0.833261277,0.223058882 1.36369683,0.0699913591 2.09230991,0.0699913591 L5.33182569,0.0699913591 C6.78774374,0.0699913591 7.51635682,0.724848784 7.51635682,2.03456363 L6.84987861,2.03456363 C6.84987861,1.61856561 6.73214939,1.31057894 6.49799905,1.10936921 C6.23245424,0.882236761 5.79751017,0.768053327 5.19251278,0.768053327 L2.10146663,0.768053327 C1.52720964,0.768053327 1.1387032,0.871744229 0.93529327,1.07850883 C0.756083231,1.25873349 0.666478211,1.57597827 0.666478211,2.02962597 C0.666478211,2.4301938 0.765239948,2.7005308 0.962763422,2.84063696 C1.19756782,3.00790026 1.64755507,3.09122331 2.31403328,3.09122331 L5.18335606,3.09122331 C6.01661734,3.09122331 6.62292283,3.23564992 7.0029266,3.52512036 C7.38227632,3.81397358 7.57195118,4.27441057 7.57195118,4.9058141 L7.57195118,5.04530305 C7.57195118,5.76311566 7.40843837,6.26860881 7.08141275,6.56116529 C6.75438713,6.85372176 6.21414081,7 5.46132783,7 L2.14725021,7 C1.48731251,7 0.9778066,6.84014319 0.620040573,6.52104678 C0.243961112,6.18219973 0.0555943552,5.68349586 0.0555943552,5.0255524 L0.722072566,5.0255524 C0.722072566,5.44463646 0.835877482,5.75324034 1.06414136,5.95259844 C1.32968617,6.18528577 1.76463024,6.30193803 2.36962763,6.30193803 L5.40573348,6.30193803 C5.91196914,6.30193803 6.2880486,6.20071596 6.53527997,5.99765461 C6.78185728,5.79521047 6.90547297,5.4711764 6.90547297,5.0255524 C6.90547297,4.57375633 6.79559236,4.25465992 6.5764852,4.06826318 C6.35737803,3.88248364 5.95186626,3.78928527 5.35929584,3.78928527 L2.12893678,3.78928527 C1.30221601,3.78928527 0.731229284,3.64238983 0.416630638,3.34921615 C0.138658862,3.08937168 0,2.64930256 0,2.02962597 Z" id="Stroke-16" stroke="#929497" stroke-width="0.422"></path>
                    <path d="M15.7355571,2.41328231 C15.7355571,1.72879891 15.6230603,1.27144797 15.3974126,1.04246389 C15.172419,0.81286261 14.7328966,0.698061968 14.0788453,0.698061968 L11.2651169,0.698061968 C10.641152,0.698061968 10.2003215,0.819651895 9.94131719,1.06221454 C9.6823129,1.30477719 9.55215671,1.75533885 9.55215671,2.41328231 L9.55215671,4.62658931 C9.55215671,5.28453277 9.67577239,5.72892236 9.92234971,5.95790643 C10.1695811,6.18750772 10.6169521,6.30169115 11.2651169,6.30169115 L14.0788453,6.30169115 C14.75121,6.30169115 15.1953108,6.19244538 15.4118017,5.97271942 C15.6276387,5.75361067 15.7355571,5.30490063 15.7355571,4.62658931 L15.7355571,2.41328231 Z M16.4020353,4.62658931 C16.4020353,5.58387853 16.2293658,6.2257746 15.8840267,6.55104308 C15.5694281,6.85038884 14.9703172,6.99975312 14.088002,6.99975312 L11.2742736,6.99975312 C10.397845,6.99975312 9.78107464,6.82508332 9.42265456,6.47636094 C9.06488853,6.12763856 8.8856785,5.51104802 8.8856785,4.62658931 L8.8856785,2.47315146 C8.8856785,1.57573139 9.06031018,0.939390199 9.40891949,0.563510678 C9.75752879,0.188248364 10.3795315,0 11.2742736,0 L14.088002,0 C14.9147228,0 15.4948663,0.159856808 15.8284324,0.478953216 C16.2110524,0.844340205 16.4020353,1.50907295 16.4020353,2.47315146 L16.4020353,4.62658931 Z" id="Fill-18" fill="#929497"></path>
                    <path d="M15.7355571,2.41328231 C15.7355571,1.72879891 15.6230603,1.27144797 15.3974126,1.04246389 C15.172419,0.81286261 14.7328966,0.698061968 14.0788453,0.698061968 L11.2651169,0.698061968 C10.641152,0.698061968 10.2003215,0.819651895 9.94131719,1.06221454 C9.6823129,1.30477719 9.55215671,1.75533885 9.55215671,2.41328231 L9.55215671,4.62658931 C9.55215671,5.28453277 9.67577239,5.72892236 9.92234971,5.95790643 C10.1695811,6.18750772 10.6169521,6.30169115 11.2651169,6.30169115 L14.0788453,6.30169115 C14.75121,6.30169115 15.1953108,6.19244538 15.4118017,5.97271942 C15.6276387,5.75361067 15.7355571,5.30490063 15.7355571,4.62658931 L15.7355571,2.41328231 Z M16.4020353,4.62658931 C16.4020353,5.58387853 16.2293658,6.2257746 15.8840267,6.55104308 C15.5694281,6.85038884 14.9703172,6.99975312 14.088002,6.99975312 L11.2742736,6.99975312 C10.397845,6.99975312 9.78107464,6.82508332 9.42265456,6.47636094 C9.06488853,6.12763856 8.8856785,5.51104802 8.8856785,4.62658931 L8.8856785,2.47315146 C8.8856785,1.57573139 9.06031018,0.939390199 9.40891949,0.563510678 C9.75752879,0.188248364 10.3795315,0 11.2742736,0 L14.088002,0 C14.9147228,0 15.4948663,0.159856808 15.8284324,0.478953216 C16.2110524,0.844340205 16.4020353,1.50907295 16.4020353,2.47315146 L16.4020353,4.62658931 Z" id="Stroke-20" stroke="#929497" stroke-width="0.422"></path>
                    <polygon id="Fill-22" fill="#929497" points="25.3809161 6.99987656 24.6588435 6.99987656 24.6588435 0.788297741 22.9184132 2.6325145 22.455999 2.15232687 24.3625583 0.0698679175 25.3809161 0.0698679175"></polygon>
                    <polygon id="Stroke-24" stroke="#929497" stroke-width="0.422" points="25.3809161 6.99987656 24.6588435 6.99987656 24.6588435 0.788297741 22.9184132 2.6325145 22.455999 2.15232687 24.3625583 0.0698679175 25.3809161 0.0698679175"></polygon>
                    <path d="M34.9147594,4.80619677 L34.9147594,0.887544748 L30.5175729,4.80619677 L34.9147594,4.80619677 Z M35.5812376,0.0703616837 L35.5812376,4.80619677 L36.441969,4.80619677 L36.441969,5.50425873 L35.5812376,5.50425873 L35.5812376,6.99975312 L34.9147594,6.99975312 L34.9147594,5.50425873 L29.5463068,5.50425873 L29.5463068,4.7852117 L34.859165,0.0703616837 L35.5812376,0.0703616837 Z" id="Fill-26" fill="#929497"></path>
                    <path d="M34.9147594,4.80619677 L34.9147594,0.887544748 L30.5175729,4.80619677 L34.9147594,4.80619677 Z M35.5812376,0.0703616837 L35.5812376,4.80619677 L36.441969,4.80619677 L36.441969,5.50425873 L35.5812376,5.50425873 L35.5812376,6.99975312 L34.9147594,6.99975312 L34.9147594,5.50425873 L29.5463068,5.50425873 L29.5463068,4.7852117 L34.859165,0.0703616837 L35.5812376,0.0703616837 Z" id="Stroke-28" stroke="#929497" stroke-width="0.422"></path>
                    <path d="M44.2822774,2.53295889 C44.2822774,1.84168621 44.1612779,1.36952228 43.919933,1.11708431 C43.6785881,0.86464634 43.2390657,0.738118751 42.6020198,0.738118751 L40.0760739,0.738118751 C39.3886661,0.738118751 38.9399869,0.841192445 38.7293824,1.04733983 C38.493924,1.28002716 38.3768488,1.77502777 38.3768488,2.53295889 L38.3768488,3.58961857 L38.3768488,4.6271448 C38.3768488,5.36470806 38.5004645,5.83687199 38.7483499,6.04301938 C38.9524139,6.21583755 39.3952066,6.30162943 40.0760739,6.30162943 L42.6020198,6.30162943 C43.2639197,6.30162943 43.6942854,6.21892359 43.8924629,6.0528947 C44.1521212,5.83995803 44.2822774,5.36470806 44.2822774,4.6271448 L44.2822774,2.53295889 Z M44.9487556,4.6271448 C44.9487556,5.5906061 44.7728159,6.2355882 44.4209363,6.56085668 C44.1063376,6.85341316 43.5046105,6.9996914 42.6164089,6.9996914 L40.0983117,6.9996914 C39.1976831,6.9996914 38.5867993,6.85341316 38.2656601,6.56085668 C37.9078941,6.2355882 37.728684,5.5906061 37.728684,4.6271448 L37.728684,3.58961857 L37.728684,2.53295889 C37.728684,1.53555117 37.8921968,0.871435625 38.2192225,0.538760647 C38.5462481,0.206085668 39.1728292,0.0400567831 40.0983117,0.0400567831 L42.6164089,0.0400567831 C43.4431297,0.0400567831 44.0258893,0.20299963 44.3653419,0.528885323 C44.7545024,0.901061597 44.9487556,1.56888039 44.9487556,2.53295889 L44.9487556,4.6271448 Z" id="Fill-30" fill="#929497"></path>
                    <path d="M44.2822774,2.53295889 C44.2822774,1.84168621 44.1612779,1.36952228 43.919933,1.11708431 C43.6785881,0.86464634 43.2390657,0.738118751 42.6020198,0.738118751 L40.0760739,0.738118751 C39.3886661,0.738118751 38.9399869,0.841192445 38.7293824,1.04733983 C38.493924,1.28002716 38.3768488,1.77502777 38.3768488,2.53295889 L38.3768488,3.58961857 L38.3768488,4.6271448 C38.3768488,5.36470806 38.5004645,5.83687199 38.7483499,6.04301938 C38.9524139,6.21583755 39.3952066,6.30162943 40.0760739,6.30162943 L42.6020198,6.30162943 C43.2639197,6.30162943 43.6942854,6.21892359 43.8924629,6.0528947 C44.1521212,5.83995803 44.2822774,5.36470806 44.2822774,4.6271448 L44.2822774,2.53295889 Z M44.9487556,4.6271448 C44.9487556,5.5906061 44.7728159,6.2355882 44.4209363,6.56085668 C44.1063376,6.85341316 43.5046105,6.9996914 42.6164089,6.9996914 L40.0983117,6.9996914 C39.1976831,6.9996914 38.5867993,6.85341316 38.2656601,6.56085668 C37.9078941,6.2355882 37.728684,5.5906061 37.728684,4.6271448 L37.728684,3.58961857 L37.728684,2.53295889 C37.728684,1.53555117 37.8921968,0.871435625 38.2192225,0.538760647 C38.5462481,0.206085668 39.1728292,0.0400567831 40.0983117,0.0400567831 L42.6164089,0.0400567831 C43.4431297,0.0400567831 44.0258893,0.20299963 44.3653419,0.528885323 C44.7545024,0.901061597 44.9487556,1.56888039 44.9487556,2.53295889 L44.9487556,4.6271448 Z" id="Stroke-32" stroke="#929497" stroke-width="0.422"></path>
                    <path d="M52.6869012,2.53295889 C52.6869012,1.84168621 52.5659018,1.36952228 52.3245569,1.11708431 C52.0832119,0.86464634 51.6436895,0.738118751 51.0066436,0.738118751 L48.4806977,0.738118751 C47.7932899,0.738118751 47.3446107,0.841192445 47.1340062,1.04733983 C46.8985478,1.28002716 46.7814726,1.77502777 46.7814726,2.53295889 L46.7814726,3.58961857 L46.7814726,4.6271448 C46.7814726,5.36470806 46.9050883,5.83687199 47.1529737,6.04301938 C47.3570377,6.21583755 47.7998304,6.30162943 48.4806977,6.30162943 L51.0066436,6.30162943 C51.6685435,6.30162943 52.0989092,6.21892359 52.2970867,6.0528947 C52.556745,5.83995803 52.6869012,5.36470806 52.6869012,4.6271448 L52.6869012,2.53295889 Z M53.3533794,4.6271448 C53.3533794,5.5906061 53.1774397,6.2355882 52.8255601,6.56085668 C52.5109615,6.85341316 51.9092343,6.9996914 51.0210327,6.9996914 L48.5029355,6.9996914 C47.6023069,6.9996914 46.9914231,6.85341316 46.6702839,6.56085668 C46.3125179,6.2355882 46.1333078,5.5906061 46.1333078,4.6271448 L46.1333078,3.58961857 L46.1333078,2.53295889 C46.1333078,1.53555117 46.2968206,0.871435625 46.6238463,0.538760647 C46.9508719,0.206085668 47.577453,0.0400567831 48.5029355,0.0400567831 L51.0210327,0.0400567831 C51.8477535,0.0400567831 52.4305132,0.20299963 52.7699657,0.528885323 C53.1591262,0.901061597 53.3533794,1.56888039 53.3533794,2.53295889 L53.3533794,4.6271448 Z" id="Fill-34" fill="#929497"></path>
                    <path d="M52.6869012,2.53295889 C52.6869012,1.84168621 52.5659018,1.36952228 52.3245569,1.11708431 C52.0832119,0.86464634 51.6436895,0.738118751 51.0066436,0.738118751 L48.4806977,0.738118751 C47.7932899,0.738118751 47.3446107,0.841192445 47.1340062,1.04733983 C46.8985478,1.28002716 46.7814726,1.77502777 46.7814726,2.53295889 L46.7814726,3.58961857 L46.7814726,4.6271448 C46.7814726,5.36470806 46.9050883,5.83687199 47.1529737,6.04301938 C47.3570377,6.21583755 47.7998304,6.30162943 48.4806977,6.30162943 L51.0066436,6.30162943 C51.6685435,6.30162943 52.0989092,6.21892359 52.2970867,6.0528947 C52.556745,5.83995803 52.6869012,5.36470806 52.6869012,4.6271448 L52.6869012,2.53295889 Z M53.3533794,4.6271448 C53.3533794,5.5906061 53.1774397,6.2355882 52.8255601,6.56085668 C52.5109615,6.85341316 51.9092343,6.9996914 51.0210327,6.9996914 L48.5029355,6.9996914 C47.6023069,6.9996914 46.9914231,6.85341316 46.6702839,6.56085668 C46.3125179,6.2355882 46.1333078,5.5906061 46.1333078,4.6271448 L46.1333078,3.58961857 L46.1333078,2.53295889 C46.1333078,1.53555117 46.2968206,0.871435625 46.6238463,0.538760647 C46.9508719,0.206085668 47.577453,0.0400567831 48.5029355,0.0400567831 L51.0210327,0.0400567831 C51.8477535,0.0400567831 52.4305132,0.20299963 52.7699657,0.528885323 C53.1591262,0.901061597 53.3533794,1.56888039 53.3533794,2.53295889 L53.3533794,4.6271448 Z" id="Stroke-36" stroke="#929497" stroke-width="0.422"></path>
                    <polygon id="Fill-38" fill="#929497" points="59 6.99987656 58.2779274 6.99987656 58.2779274 0.788297741 56.5374971 2.6325145 56.0750829 2.15232687 57.9816422 0.0698679175 59 0.0698679175"></polygon>
                    <polygon id="Stroke-40" stroke="#929497" stroke-width="0.422" points="59 6.99987656 58.2779274 6.99987656 58.2779274 0.788297741 56.5374971 2.6325145 56.0750829 2.15232687 57.9816422 0.0698679175 59 0.0698679175"></polygon>
                </g>
            </g>
        </g>
    </g>
</svg>